# xmcd
#
# Track frame offsets:
# 150
# 13187
# 40517
# 71532
# 93204
# 103292
# 130274
# 153219
#
# Disc length: 2282 seconds
#
# Revision: 0
# Processed by: cddbd v1.5.2PL0 Copyright (c) Steve Scherf et al.
# Submitted via: Audion 3.0.2 (http://www.panic.com/audion/)
#
DISCID=5d08e808
DTITLE=Weather Report - Heavy Weather
DYEAR=1900
DGENRE=
TTITLE0=Teen Town
TTITLE1=Havona
TTITLE2=A Remark You Made
TTITLE3=Palladium
TTITLE4=Rumba Mama
TTITLE5=Birdland
TTITLE6=The Juggler
TTITLE7=Harlequin
EXTD=
EXTT0=
EXTT1=
EXTT2=
EXTT3=
EXTT4=
EXTT5=
EXTT6=
EXTT7=
PLAYORDER=
